<svg width="64" height="64" viewBox="0 0 64 64" fill="none" xmlns="http://www.w3.org/2000/svg">
<g id="iconspace_Inbox_25px" opacity="0.7">
<path id="Path" d="M50.6558 37.12C50.6558 36.0596 51.5154 35.2 52.5758 35.2C53.6362 35.2 54.4958 36.0596 54.4958 37.12V44.8C54.4958 50.0809 50.6094 54.4 45.7491 54.4H18.4425C13.5822 54.4 9.6958 50.0809 9.6958 44.8V37.12C9.6958 36.0596 10.5554 35.2 11.6158 35.2C12.6762 35.2 13.5358 36.0596 13.5358 37.12V44.8C13.5358 48.0053 15.7672 50.56 18.4425 50.56H45.7491C48.4244 50.56 50.6558 48.0053 50.6558 44.8V37.12Z" fill="#B2B9C2"/>
<path id="Path_2" d="M38.4198 30.6407C39.1705 29.8918 40.3862 29.8933 41.1351 30.644C41.884 31.3947 41.8826 32.6103 41.1319 33.3593L33.4519 41.0208C32.7026 41.7684 31.4893 41.7685 30.7398 41.0208L23.0598 33.3593C22.3091 32.6103 22.3077 31.3947 23.0566 30.644C23.8055 29.8933 25.0212 29.8918 25.7719 30.6407L30.1758 35.0341V11.52C30.1758 10.4596 31.0355 9.59998 32.0958 9.59998C33.1562 9.59998 34.0159 10.4596 34.0159 11.52V35.0341L38.4198 30.6407Z" fill="#B2B9C2"/>
</g>
</svg>
