<svg width="18" height="18" viewBox="0 0 18 18" fill="none" xmlns="http://www.w3.org/2000/svg">
<path d="M11.7245 13.1387L12.2549 12.6084C11.9922 12.3458 11.577 12.3149 11.2784 12.5358L11.7245 13.1387ZM13.1387 11.7245L12.5358 11.2784C12.3149 11.577 12.3458 11.9922 12.6084 12.2549L13.1387 11.7245ZM7.72727 2.25C4.70226 2.25 2.25 4.70226 2.25 7.72727H3.75C3.75 5.53069 5.53069 3.75 7.72727 3.75V2.25ZM13.2045 7.72727C13.2045 4.70226 10.7523 2.25 7.72727 2.25V3.75C9.92386 3.75 11.7045 5.53069 11.7045 7.72727H13.2045ZM7.72727 13.2045C10.7523 13.2045 13.2045 10.7523 13.2045 7.72727H11.7045C11.7045 9.92386 9.92386 11.7045 7.72727 11.7045V13.2045ZM2.25 7.72727C2.25 10.7523 4.70226 13.2045 7.72727 13.2045V11.7045C5.53069 11.7045 3.75 9.92386 3.75 7.72727H2.25ZM1.75 7.72727C1.75 4.42612 4.42612 1.75 7.72727 1.75V0.25C3.59769 0.25 0.25 3.59769 0.25 7.72727H1.75ZM7.72727 13.7045C4.42612 13.7045 1.75 11.0284 1.75 7.72727H0.25C0.25 11.8569 3.59769 15.2045 7.72727 15.2045V13.7045ZM11.2784 12.5358C10.2856 13.2704 9.05822 13.7045 7.72727 13.7045V15.2045C9.39021 15.2045 10.9283 14.6608 12.1706 13.7417L11.2784 12.5358ZM15.6641 16.0177L12.2549 12.6084L11.1942 13.6691L14.6035 17.0783L15.6641 16.0177ZM16.0177 16.0177C15.9201 16.1153 15.7618 16.1153 15.6641 16.0177L14.6035 17.0783C15.2869 17.7618 16.3949 17.7618 17.0783 17.0783L16.0177 16.0177ZM16.0177 15.6641C16.1153 15.7618 16.1153 15.9201 16.0177 16.0177L17.0783 17.0783C17.7618 16.3949 17.7618 15.2869 17.0783 14.6035L16.0177 15.6641ZM12.6084 12.2549L16.0177 15.6641L17.0783 14.6035L13.6691 11.1942L12.6084 12.2549ZM13.7045 7.72727C13.7045 9.05822 13.2704 10.2856 12.5358 11.2784L13.7417 12.1706C14.6608 10.9283 15.2045 9.39021 15.2045 7.72727H13.7045ZM7.72727 1.75C11.0284 1.75 13.7045 4.42612 13.7045 7.72727H15.2045C15.2045 3.59769 11.8569 0.25 7.72727 0.25V1.75Z" fill="white"/>
</svg>
